<mxfile host="app.diagrams.net" modified="2024-06-07T00:37:27.367Z" agent="Mozilla/5.0 (Windows NT 10.0; Win64; x64) AppleWebKit/537.36 (KHTML, like Gecko) Chrome/125.0.0.0 Safari/537.36 Edg/125.0.0.0" version="24.5.1" etag="0UL9hObM-4O5dvoLSqPC" type="github">
  <diagram name="Page-1" id="IP8bZrP788ivfJOqXWP5">
    <mxGraphModel>
      <root>
        <mxCell id="0" />
        <mxCell id="1" parent="0" />
      </root>
    </mxGraphModel>
  </diagram>
</mxfile>
